<?xml version="1.0" encoding="UTF-8"?>
<svg version="1.1" xmlns="http://www.w3.org/2000/svg" width="50" height="50">
<path d="M0 0 C16.5 0 33 0 50 0 C50 16.5 50 33 50 50 C33.5 50 17 50 0 50 C0 33.5 0 17 0 0 Z " fill="#9DB9A8" transform="translate(0,0)"/>
<path d="M0 0 C7.92 0 15.84 0 24 0 C24 2.64 24 5.28 24 8 C22.68 8 21.36 8 20 8 C21.90884692 12.54170996 21.90884692 12.54170996 24 17 C22.125 16.3125 22.125 16.3125 20 15 C19.5359375 13.7315625 19.5359375 13.7315625 19.0625 12.4375 C18.711875 11.633125 18.36125 10.82875 18 10 C15.525 9.505 15.525 9.505 13 9 C13.33 19.23 13.66 29.46 14 40 C15.32 40.33 16.64 40.66 18 41 C18.33 37.04 18.66 33.08 19 29 C21.97 29.99 24.94 30.98 28 32 C27.67 32.66 27.34 33.32 27 34 C25.68 34 24.36 34 23 34 C23.2475 35.8871875 23.2475 35.8871875 23.5 37.8125 C24.03724372 41.90898335 24 45.85695721 24 50 C16.08 50 8.16 50 0 50 C0 33.5 0 17 0 0 Z " fill="#45AABD" transform="translate(0,0)"/>
<path d="M0 0 C4.07703716 0.18962964 5.75217356 0.78449875 8.875 3.5 C11.32626081 6.81079382 11.7194942 9.75185739 11.5 13.8125 C10.64358538 17.55931398 8.75978331 19.37163495 6 22 C2.87293041 23.5635348 -0.57982443 23.39958487 -4 23 C-4.99 22.34 -5.98 21.68 -7 21 C-7 24.96 -7 28.92 -7 33 C-8.98 33.495 -8.98 33.495 -11 34 C-13 32 -13 32 -13.22705078 28.92724609 C-13.21657715 27.63898926 -13.20610352 26.35073242 -13.1953125 25.0234375 C-13.1924826 24.33819 -13.18965271 23.6529425 -13.18673706 22.94692993 C-13.17553281 20.75610973 -13.15042859 18.56569684 -13.125 16.375 C-13.11497048 14.8906309 -13.10584458 13.4062554 -13.09765625 11.921875 C-13.07559294 8.28111739 -13.04106176 4.64059844 -13 1 C-11.35 1 -9.7 1 -8 1 C-7.566875 1.94875 -7.13375 2.8975 -6.6875 3.875 C-5.20697799 7.20041937 -5.20697799 7.20041937 -2 9 C-2 9.66 -2 10.32 -2 11 C-3.65 10.67 -5.3 10.34 -7 10 C-6.34 11.98 -5.68 13.96 -5 16 C-0.46859347 16.93380961 -0.46859347 16.93380961 4 16 C4.33380814 12.62563814 4.33380814 12.62563814 4 9 C2.68662604 7.9739266 1.35335895 6.97272675 0 6 C-0.25 2.8125 -0.25 2.8125 0 0 Z " fill="#E5F2F2" transform="translate(26,8)"/>
<path d="M0 0 C5.28 0 10.56 0 16 0 C16 4.29 16 8.58 16 13 C14.68 13.33 13.36 13.66 12 14 C9.95880212 12.38405168 7.95927063 10.7143618 6 9 C3.78264561 8.14720662 3.78264561 8.14720662 2 8 C2 9.98 2 11.96 2 14 C2.639375 14.309375 3.27875 14.61875 3.9375 14.9375 C6 16 6 16 7 17 C6.75 20.4375 6.75 20.4375 6 24 C3 26 3 26 -0.0625 25.75 C-3 25 -3 25 -5 23 C-5.125 20.375 -5.125 20.375 -5 18 C-3.35 18.33 -1.7 18.66 0 19 C-0.474375 18.29875 -0.94875 17.5975 -1.4375 16.875 C-3.08739857 13.83918663 -3.60368464 11.40831214 -4 8 C-2.68 8 -1.36 8 0 8 C0 5.36 0 2.72 0 0 Z " fill="#7DB6AE" transform="translate(24,0)"/>
<path d="M0 0 C1.65 0 3.3 0 5 0 C5.433125 0.94875 5.86625 1.8975 6.3125 2.875 C7.79302201 6.20041937 7.79302201 6.20041937 11 8 C11 8.66 11 9.32 11 10 C9.35 9.67 7.7 9.34 6 9 C5.10107162 12.55156755 5.10107162 12.55156755 5.5625 16.125 C5.706875 16.74375 5.85125 17.3625 6 18 C5.34 18.99 4.68 19.98 4 21 C4.66 21 5.32 21 6 21 C6 24.63 6 28.26 6 32 C4.02 32.495 4.02 32.495 2 33 C0 31 0 31 -0.22705078 27.92724609 C-0.21657715 26.63898926 -0.20610352 25.35073242 -0.1953125 24.0234375 C-0.1924826 23.33819 -0.18965271 22.6529425 -0.18673706 21.94692993 C-0.17553281 19.75610973 -0.15042859 17.56569684 -0.125 15.375 C-0.11497048 13.8906309 -0.10584458 12.4062554 -0.09765625 10.921875 C-0.07559294 7.28111739 -0.04106176 3.64059844 0 0 Z " fill="#D7F0F3" transform="translate(13,9)"/>
<path d="M0 0 C1.65 0 3.3 0 5 0 C5.061875 0.7425 5.12375 1.485 5.1875 2.25 C5.76344058 5.23782628 5.76344058 5.23782628 8.625 6.875 C9.40875 7.57625 10.1925 8.2775 11 9 C11 12.625 11 12.625 10 16 C7 18 7 18 3.9375 17.75 C1 17 1 17 -1 15 C-1.125 12.375 -1.125 12.375 -1 10 C1.475 10.495 1.475 10.495 4 11 C3.525625 10.29875 3.05125 9.5975 2.5625 8.875 C0.91260143 5.83918663 0.39631536 3.40831214 0 0 Z " fill="#6CB4B1" transform="translate(20,8)"/>
<path d="M0 0 C2.97 0.99 5.94 1.98 9 3 C8.67 3.66 8.34 4.32 8 5 C6.68 5 5.36 5 4 5 C4.165 6.258125 4.33 7.51625 4.5 8.8125 C5.35064935 15.2987013 5.35064935 15.2987013 4 18 C1.4375 18.625 1.4375 18.625 -1 19 C-1.33 18.01 -1.66 17.02 -2 16 C-3.65 15.67 -5.3 15.34 -7 15 C-6.34 13.68 -5.68 12.36 -5 11 C-3.68 11.33 -2.36 11.66 -1 12 C-0.67 8.04 -0.34 4.08 0 0 Z " fill="#5FB2B2" transform="translate(19,29)"/>
<path d="M0 0 C0.99 0 1.98 0 3 0 C3 1.98 3 3.96 3 6 C3.66 6 4.32 6 5 6 C5.33 5.34 5.66 4.68 6 4 C6.99 4.66 7.98 5.32 9 6 C9 6.66 9 7.32 9 8 C7.35 7.67 5.7 7.34 4 7 C3.34 9.97 2.68 12.94 2 16 C-0.42130331 12.36804504 -0.21022785 10.61650652 -0.125 6.3125 C-0.09792969 4.54326172 -0.09792969 4.54326172 -0.0703125 2.73828125 C-0.04710937 1.83464844 -0.02390625 0.93101563 0 0 Z " fill="#DCEDEC" transform="translate(15,11)"/>
<path d="M0 0 C1.98 0.66 3.96 1.32 6 2 C6 2.66 6 3.32 6 4 C7.65 4.33 9.3 4.66 11 5 C10.67 5.66 10.34 6.32 10 7 C7.4375 7.625 7.4375 7.625 5 8 C4.67 7.01 4.34 6.02 4 5 C2.35 4.67 0.7 4.34 -1 4 C-0.67 2.68 -0.34 1.36 0 0 Z " fill="#52B0B4" transform="translate(13,40)"/>
<path d="M0 0 C1.98 0.66 3.96 1.32 6 2 C6 3.32 6 4.64 6 6 C4.125 6.625 4.125 6.625 2 7 C0 5 0 5 -0.125 2.375 C-0.08375 1.59125 -0.0425 0.8075 0 0 Z " fill="#59AFAE" transform="translate(19,18)"/>
<path d="M0 0 C1.32 0.33 2.64 0.66 4 1 C4 1.99 4 2.98 4 4 C2.39950296 4.39036513 0.79437629 4.76178619 -0.8125 5.125 C-1.70582031 5.33382813 -2.59914063 5.54265625 -3.51953125 5.7578125 C-6 6 -6 6 -9 4 C-5.7 3.34 -2.4 2.68 1 2 C0.67 1.34 0.34 0.68 0 0 Z " fill="#DBECEA" transform="translate(28,24)"/>
<path d="M0 0 C1.65 0 3.3 0 5 0 C5 1.65 5 3.3 5 5 C4.34 5 3.68 5 3 5 C2.67 5.66 2.34 6.32 2 7 C1.34 4.69 0.68 2.38 0 0 Z " fill="#56B1B0" transform="translate(20,8)"/>
<path d="M0 0 C2.97 0.495 2.97 0.495 6 1 C5.67 2.32 5.34 3.64 5 5 C3.68 4.67 2.36 4.34 1 4 C0.67 2.68 0.34 1.36 0 0 Z " fill="#8CB6A9" transform="translate(34,9)"/>
<path d="M0 0 C0.99 0.495 0.99 0.495 2 1 C2.4140625 3.28515625 2.4140625 3.28515625 2.625 6.0625 C2.69976562 6.98160156 2.77453125 7.90070312 2.8515625 8.84765625 C2.92503906 9.91306641 2.92503906 9.91306641 3 11 C2.01 11 1.02 11 0 11 C0 7.37 0 3.74 0 0 Z " fill="#91B5A6" transform="translate(37,15)"/>
<path d="M0 0 C-4.1795645 2.78637633 -6.14668677 1.79562512 -11 1 C-11 0.67 -11 0.34 -11 0 C-6.98195309 -0.84098656 -3.98196457 -1.05404945 0 0 Z " fill="#7FB6AC" transform="translate(35,31)"/>
<path d="M0 0 C0.33 0.66 0.66 1.32 1 2 C1.66 2 2.32 2 3 2 C3.33 1.34 3.66 0.68 4 0 C4.99 0.66 5.98 1.32 7 2 C7 2.66 7 3.32 7 4 C5.35 3.67 3.7 3.34 2 3 C1.67 3.99 1.34 4.98 1 6 C0.34 4.35 -0.32 2.7 -1 1 C-0.67 0.67 -0.34 0.34 0 0 Z " fill="#C0E5E7" transform="translate(17,15)"/>
<path d="M0 0 C2.86724686 0.57344937 3.8614515 0.8614515 6 3 C6.125 5.625 6.125 5.625 6 8 C5.34 8 4.68 8 4 8 C3.566875 6.576875 3.566875 6.576875 3.125 5.125 C2.23174891 1.94788422 2.23174891 1.94788422 0 0 Z " fill="#7CB4AE" transform="translate(25,14)"/>
</svg>
