<svg width="205" height="47" viewBox="0 0 205 47" fill="none" xmlns="http://www.w3.org/2000/svg">
<path d="M51.6986 40.0038C51.6986 36.7357 53.0542 31.4711 54.9374 26.2042C54.5491 26.1249 54.0816 26.0455 53.6075 25.9111C53.1764 25.7921 52.8761 25.391 52.8761 24.9327C52.8761 24.3311 53.3866 23.8595 53.9679 23.9278C54.6071 24.0027 55.1154 24.0446 55.7031 24.0842C59.0598 15.4898 63.6542 7.44183 66.3052 7.44183C67.0709 7.44183 67.9546 8.10736 67.9546 9.19599C67.9546 11.6157 63.6542 17.4863 60.3553 24.265C64.2118 24.265 67.0731 24.2165 70.0866 23.9454C70.6507 23.8947 71.1333 24.3553 71.1333 24.9371C71.1333 25.4483 70.7537 25.8781 70.2582 25.9287C66.0092 26.3541 62.5474 26.5656 59.2936 26.5656C57.6442 30.5609 56.2307 34.7965 56.2307 38.7301C56.2307 42.0577 57.2324 43.2697 59.4116 43.2697C63.3002 43.2697 67.7766 39.3361 70.8395 33.0423L71.6653 33.6483C68.5423 40.8501 63.1244 46.3571 57.4683 46.3571C53.9958 46.3593 51.6986 44.3011 51.6986 40.0038Z" fill="white"/>
<path d="M75.0843 40.7906C75.0843 37.4013 78.441 32.9234 78.441 30.0189C78.441 28.1435 77.0855 26.9932 75.4961 26.1448C73.7287 30.6227 71.1248 35.0521 69.7693 37.3528L69.1644 36.046C70.2841 33.9878 72.1973 29.5319 73.8467 24.752C73.4928 24.3884 73.2569 23.9058 73.2569 23.1191C73.2569 21.0013 74.8484 18.7623 76.0259 18.7623C76.9675 18.7623 77.3815 20.2763 77.3815 20.6994C77.3815 21.1225 76.8517 22.4535 76.7337 22.9384C76.9096 24.7542 83.0954 25.9046 83.0954 31.048C83.0954 34.618 80.0325 38.4304 80.0325 40.7311C80.0325 41.8814 80.7403 42.1239 81.5061 42.1239C85.2167 42.1239 90.2228 36.6763 91.7543 33.2275L93.1678 34.3161C90.8706 39.5808 85.2746 45.1495 79.9725 45.1495C77.0876 45.1495 75.0843 43.4549 75.0843 40.7906Z" fill="white"/>
<path d="M88.9271 41.0945C88.9271 34.014 97.468 22.817 105.597 22.817C108.954 22.817 111.665 24.754 111.665 27.6585C111.665 29.7168 110.369 30.5035 108.308 30.563C109.074 30.8054 110.43 31.3497 110.43 32.3788C110.43 33.9523 107.073 37.7052 107.073 40.3673C107.073 41.3964 107.545 42.5468 108.84 42.5468C110.726 42.5468 114.496 40.0059 118.029 33.1061L119.148 34.2564C116.261 40.8521 111.609 45.3918 107.191 45.3918C103.834 45.3918 102.3 42.6085 102.3 40.1271C99.1775 44.0012 96.7645 46.4209 93.7595 46.4209C91.1642 46.4187 88.9271 44.6645 88.9271 41.0945ZM107.186 30.6842C107.304 30.5035 107.48 30.3823 107.658 30.3823L107.894 30.4418C108.13 29.6551 108.188 29.0491 108.188 28.2028C108.188 26.5677 107.716 25.0559 105.715 25.0559C100.237 25.0559 93.6394 35.8277 93.6394 41.3964C93.6394 42.7892 94.0512 43.3335 94.995 43.3335C98.5855 43.3335 104.181 34.8007 107.186 30.6842Z" fill="white"/>
<path d="M117.081 38.6727C117.081 37.8242 117.141 35.5853 117.317 31.4709C117.377 29.0513 117.493 28.3241 119.556 28.3241C121.441 28.3241 121.499 28.9301 121.499 31.2285C121.499 33.6504 121.205 36.4932 121.205 39.0958C121.205 41.6367 121.323 42.7275 122.265 42.7275C125.034 42.7275 129.217 35.647 131.514 30.3823C131.69 24.9347 132.869 23.4825 134.577 23.4825C136.52 23.4825 137.11 25.1772 137.11 26.1446C137.11 28.0199 135.224 28.5048 135.224 33.6482C135.224 35.3429 135.46 37.8837 137.757 37.8837C139.289 37.8837 140.702 36.7334 142.352 33.4058L143 33.9501C141.174 38.3686 138.817 39.942 136.756 39.942C134.165 39.942 132.573 37.5818 131.75 34.3137C128.863 39.7613 124.74 45.9339 120.969 45.9339C118.025 45.9361 117.081 42.9699 117.081 38.6727Z" fill="white"/>
<path d="M139.229 41.0945C139.229 34.014 147.77 22.817 155.899 22.817C159.256 22.817 161.967 24.754 161.967 27.6585C161.967 29.7168 160.671 30.5035 158.61 30.563C159.376 30.8054 160.731 31.3497 160.731 32.3788C160.731 33.9523 157.375 37.7052 157.375 40.3673C157.375 41.3964 157.846 42.5468 159.142 42.5468C161.027 42.5468 164.798 40.0059 168.331 33.1061L169.45 34.2564C166.563 40.8521 161.911 45.3918 157.493 45.3918C154.136 45.3918 152.604 42.6085 152.604 40.1271C149.481 44.0012 147.068 46.4209 144.063 46.4209C141.468 46.4187 139.229 44.6645 139.229 41.0945ZM157.49 30.6842C157.608 30.5035 157.784 30.3823 157.962 30.3823L158.198 30.4418C158.434 29.6551 158.492 29.0491 158.492 28.2028C158.492 26.5677 158.02 25.0559 156.019 25.0559C150.541 25.0559 143.943 35.8277 143.943 41.3964C143.943 42.7892 144.355 43.3335 145.299 43.3335C148.889 43.3335 154.485 34.8007 157.49 30.6842Z" fill="white"/>
<path d="M167.031 38.9748C167.031 27.1122 181.286 -3.05176e-05 185.762 -3.05176e-05C187.233 -3.05176e-05 188.177 2.96616 188.235 4.84152C188.235 10.2274 181.284 25.4792 172.331 32.7405C171.977 34.7987 171.683 36.8548 171.683 38.4282C171.683 41.3327 172.685 42.6043 174.216 42.6043C177.161 42.6043 180.578 37.7627 182.757 32.9807L184.171 33.7674C180.814 40.9691 176.513 45.3876 171.977 45.3876C168.268 45.3898 167.031 42.4853 167.031 38.9748ZM185.528 5.50924C184.055 5.50924 176.751 18.0373 173.395 28.992C180.05 21.5456 185.528 9.56407 185.528 5.50924Z" fill="white"/>
<path d="M180.344 38.9151C180.344 31.7729 188.295 21.7284 195.601 21.7284C197.662 21.7284 199.901 22.5746 199.901 25.7832C199.901 31.8963 192.126 36.7378 185.056 37.5245C184.998 37.8265 184.938 38.1306 184.938 38.9173C184.938 39.7635 184.998 43.6376 189.475 43.6376C194.363 43.6376 199.843 38.9768 202.846 33.1678L204.023 34.1352C200.843 41.3965 194.481 46.2402 188.177 46.2402C183.111 46.238 180.344 43.0911 180.344 38.9151ZM196.718 25.4791C196.718 24.5711 196.424 24.3287 195.716 24.3287C192.124 24.3287 187.351 30.2589 185.702 35.2834C189.826 34.8008 196.718 30.0187 196.718 25.4791Z" fill="white"/>
<path d="M3.50987 37.9572C2.31579 38.1563 1.12394 38.637 0.549176 39.4221C-0.760748 41.2097 -0.0411786 43.7595 6.18319 42.892C8.0857 42.6265 10.5206 42.1687 12.7952 41.7178C24.9187 39.3213 42.313 31.1821 43.7098 22.9857C44.494 18.3874 43.0482 14.8556 39.2009 13.0062C34.8812 10.9279 29.9779 11.7725 26.839 16.1878C20.1891 25.5446 25.8722 37.1721 31.8492 45.055C32.4218 45.808 33.5223 44.9611 33.0032 44.1875C27.9373 36.8219 22.4993 25.9772 28.8306 17.8403C29.9445 16.483 31.1453 15.7391 32.6535 15.1051C35.9283 13.7318 40.3548 15.5331 41.1123 18.7925C42.0034 22.6263 39.6397 25.9566 36.5275 28.0853C23.1008 37.2865 16.4755 35.7965 3.50987 37.9572Z" fill="white"/>
<path d="M4.98027 37.7839C3.53445 38.482 3.13122 40.0727 4.14263 41.3545C4.93125 42.3959 6.39044 42.5836 7.40407 41.7734C10.1955 39.4387 11.9242 37.0904 13.37 33.7097C14.0294 32.1693 14.4839 31.0981 14.6332 29.6309C14.6577 29.3837 14.3903 29.3448 14.2277 29.5234C11.7749 32.2448 9.74768 35.4813 4.98027 37.7839Z" fill="white"/>
</svg>
