<svg width="152" height="35" viewBox="0 0 152 35" fill="none" xmlns="http://www.w3.org/2000/svg">
<path d="M38.5161 29.8034C38.5161 27.3687 39.526 23.4464 40.929 19.5226C40.6398 19.4635 40.2914 19.4044 39.9383 19.3042C39.6171 19.2156 39.3934 18.9168 39.3934 18.5753C39.3934 18.1271 39.7737 17.7757 40.2067 17.8266C40.6829 17.8824 41.0616 17.9136 41.4995 17.9432C44.0003 11.5402 47.4231 5.54443 49.3982 5.54443C49.9687 5.54443 50.627 6.04026 50.627 6.8513C50.627 8.65397 47.4231 13.0277 44.9655 18.0778C47.8386 18.0778 49.9703 18.0417 52.2154 17.8397C52.6357 17.802 52.9952 18.1451 52.9952 18.5785C52.9952 18.9594 52.7124 19.2796 52.3432 19.3174C49.1777 19.6342 46.5986 19.7918 44.1745 19.7918C42.9456 22.7684 41.8926 25.9239 41.8926 28.8545C41.8926 31.3336 42.6388 32.2365 44.2623 32.2365C47.1594 32.2365 50.4944 29.306 52.7763 24.617L53.3915 25.0685C51.0649 30.4339 47.0284 34.5367 42.8146 34.5367C40.2275 34.5383 38.5161 33.0049 38.5161 29.8034Z" fill="white"/>
<path d="M38.5161 29.8034C38.5161 27.3687 39.526 23.4464 40.929 19.5226C40.6398 19.4635 40.2914 19.4044 39.9383 19.3042C39.6171 19.2156 39.3934 18.9168 39.3934 18.5753C39.3934 18.1271 39.7737 17.7757 40.2067 17.8266C40.6829 17.8824 41.0616 17.9136 41.4995 17.9432C44.0003 11.5402 47.4231 5.54443 49.3982 5.54443C49.9687 5.54443 50.627 6.04026 50.627 6.8513C50.627 8.65397 47.4231 13.0277 44.9655 18.0778C47.8386 18.0778 49.9703 18.0417 52.2154 17.8397C52.6357 17.802 52.9952 18.1451 52.9952 18.5785C52.9952 18.9594 52.7124 19.2796 52.3432 19.3174C49.1777 19.6342 46.5986 19.7918 44.1745 19.7918C42.9456 22.7684 41.8926 25.9239 41.8926 28.8545C41.8926 31.3336 42.6388 32.2365 44.2623 32.2365C47.1594 32.2365 50.4944 29.306 52.7763 24.617L53.3915 25.0685C51.0649 30.4339 47.0284 34.5367 42.8146 34.5367C40.2275 34.5383 38.5161 33.0049 38.5161 29.8034Z" fill="url(#paint0_linear_207_456)"/>
<path d="M55.9386 30.3895C55.9386 27.8645 58.4394 24.5284 58.4394 22.3645C58.4394 20.9673 57.4295 20.1103 56.2454 19.4782C54.9287 22.8143 52.9888 26.1143 51.9789 27.8284L51.5283 26.8548C52.3624 25.3214 53.7878 22.0017 55.0166 18.4406C54.7529 18.1697 54.5772 17.8102 54.5772 17.2241C54.5772 15.6463 55.7629 13.9783 56.6401 13.9783C57.3416 13.9783 57.65 15.1062 57.65 15.4214C57.65 15.7366 57.2553 16.7283 57.1675 17.0895C57.2985 18.4423 61.907 19.2993 61.907 23.1312C61.907 25.7909 59.6251 28.6312 59.6251 30.3452C59.6251 31.2022 60.1525 31.3828 60.7229 31.3828C63.4874 31.3828 67.217 27.3243 68.358 24.7549L69.411 25.566C67.6996 29.4882 63.5305 33.637 59.5804 33.637C57.4311 33.637 55.9386 32.3745 55.9386 30.3895Z" fill="white"/>
<path d="M55.9386 30.3895C55.9386 27.8645 58.4394 24.5284 58.4394 22.3645C58.4394 20.9673 57.4295 20.1103 56.2454 19.4782C54.9287 22.8143 52.9888 26.1143 51.9789 27.8284L51.5283 26.8548C52.3624 25.3214 53.7878 22.0017 55.0166 18.4406C54.7529 18.1697 54.5772 17.8102 54.5772 17.2241C54.5772 15.6463 55.7629 13.9783 56.6401 13.9783C57.3416 13.9783 57.65 15.1062 57.65 15.4214C57.65 15.7366 57.2553 16.7283 57.1675 17.0895C57.2985 18.4423 61.907 19.2993 61.907 23.1312C61.907 25.7909 59.6251 28.6312 59.6251 30.3452C59.6251 31.2022 60.1525 31.3828 60.7229 31.3828C63.4874 31.3828 67.217 27.3243 68.358 24.7549L69.411 25.566C67.6996 29.4882 63.5305 33.637 59.5804 33.637C57.4311 33.637 55.9386 32.3745 55.9386 30.3895Z" fill="url(#paint1_linear_207_456)"/>
<path d="M66.2518 30.616C66.2518 25.3409 72.6149 16.999 78.6712 16.999C81.172 16.999 83.1918 18.4421 83.1918 20.606C83.1918 22.1394 82.2266 22.7256 80.691 22.7699C81.2615 22.9505 82.2714 23.356 82.2714 24.1227C82.2714 25.2949 79.7706 28.0909 79.7706 30.0742C79.7706 30.8409 80.1221 31.6979 81.0873 31.6979C82.4919 31.6979 85.3011 29.8049 87.933 24.6645L88.7671 25.5215C86.6162 30.4354 83.1503 33.8175 79.8585 33.8175C77.3577 33.8175 76.2151 31.7439 76.2151 29.8952C73.8885 32.7815 72.0908 34.5842 69.852 34.5842C67.9185 34.5825 66.2518 33.2757 66.2518 30.616ZM79.8553 22.8602C79.9431 22.7256 80.0742 22.6353 80.2068 22.6353L80.3826 22.6796C80.5584 22.0935 80.6015 21.642 80.6015 21.0115C80.6015 19.7933 80.25 18.6671 78.7591 18.6671C74.6779 18.6671 69.7625 26.6921 69.7625 30.8409C69.7625 31.8785 70.0694 32.284 70.7725 32.284C73.4474 32.284 77.6165 25.927 79.8553 22.8602Z" fill="white"/>
<path d="M66.2518 30.616C66.2518 25.3409 72.6149 16.999 78.6712 16.999C81.172 16.999 83.1918 18.4421 83.1918 20.606C83.1918 22.1394 82.2266 22.7256 80.691 22.7699C81.2615 22.9505 82.2714 23.356 82.2714 24.1227C82.2714 25.2949 79.7706 28.0909 79.7706 30.0742C79.7706 30.8409 80.1221 31.6979 81.0873 31.6979C82.4919 31.6979 85.3011 29.8049 87.933 24.6645L88.7671 25.5215C86.6162 30.4354 83.1503 33.8175 79.8585 33.8175C77.3577 33.8175 76.2151 31.7439 76.2151 29.8952C73.8885 32.7815 72.0908 34.5842 69.852 34.5842C67.9185 34.5825 66.2518 33.2757 66.2518 30.616ZM79.8553 22.8602C79.9431 22.7256 80.0742 22.6353 80.2068 22.6353L80.3826 22.6796C80.5584 22.0935 80.6015 21.642 80.6015 21.0115C80.6015 19.7933 80.25 18.6671 78.7591 18.6671C74.6779 18.6671 69.7625 26.6921 69.7625 30.8409C69.7625 31.8785 70.0694 32.284 70.7725 32.284C73.4474 32.284 77.6165 25.927 79.8553 22.8602Z" fill="url(#paint2_linear_207_456)"/>
<path d="M87.2267 28.8117C87.2267 28.1796 87.2714 26.5115 87.4024 23.4463C87.4472 21.6437 87.5335 21.1019 89.0707 21.1019C90.4753 21.1019 90.5185 21.5534 90.5185 23.2657C90.5185 25.0701 90.2995 27.188 90.2995 29.1269C90.2995 31.0199 90.3874 31.8326 91.0889 31.8326C93.1519 31.8326 96.2679 26.5575 97.9793 22.6353C98.1104 18.5768 98.9892 17.4949 100.261 17.4949C101.709 17.4949 102.148 18.7574 102.148 19.4781C102.148 20.8753 100.744 21.2365 100.744 25.0684C100.744 26.331 100.92 28.2239 102.631 28.2239C103.772 28.2239 104.825 27.3669 106.054 24.8878L106.536 25.2933C105.177 28.5851 103.42 29.7574 101.885 29.7574C99.9544 29.7574 98.7687 27.999 98.1551 25.5642C96.0043 29.6227 92.933 34.2214 90.1238 34.2214C87.9298 34.223 87.2267 32.0132 87.2267 28.8117Z" fill="white"/>
<path d="M87.2267 28.8117C87.2267 28.1796 87.2714 26.5115 87.4024 23.4463C87.4472 21.6437 87.5335 21.1019 89.0707 21.1019C90.4753 21.1019 90.5185 21.5534 90.5185 23.2657C90.5185 25.0701 90.2995 27.188 90.2995 29.1269C90.2995 31.0199 90.3874 31.8326 91.0889 31.8326C93.1519 31.8326 96.2679 26.5575 97.9793 22.6353C98.1104 18.5768 98.9892 17.4949 100.261 17.4949C101.709 17.4949 102.148 18.7574 102.148 19.4781C102.148 20.8753 100.744 21.2365 100.744 25.0684C100.744 26.331 100.92 28.2239 102.631 28.2239C103.772 28.2239 104.825 27.3669 106.054 24.8878L106.536 25.2933C105.177 28.5851 103.42 29.7574 101.885 29.7574C99.9544 29.7574 98.7687 27.999 98.1551 25.5642C96.0043 29.6227 92.933 34.2214 90.1238 34.2214C87.9298 34.223 87.2267 32.0132 87.2267 28.8117Z" fill="url(#paint3_linear_207_456)"/>
<path d="M103.727 30.616C103.727 25.3409 110.09 16.999 116.147 16.999C118.647 16.999 120.667 18.4421 120.667 20.606C120.667 22.1394 119.702 22.7256 118.166 22.7699C118.737 22.9505 119.747 23.356 119.747 24.1227C119.747 25.2949 117.246 28.0909 117.246 30.0742C117.246 30.8409 117.597 31.6979 118.563 31.6979C119.967 31.6979 122.776 29.8049 125.408 24.6645L126.242 25.5215C124.092 30.4354 120.626 33.8175 117.334 33.8175C114.833 33.8175 113.692 31.7439 113.692 29.8952C111.365 32.7815 109.568 34.5842 107.329 34.5842C105.395 34.5825 103.727 33.2757 103.727 30.616ZM117.332 22.8602C117.42 22.7256 117.551 22.6353 117.684 22.6353L117.86 22.6796C118.035 22.0935 118.078 21.642 118.078 21.0115C118.078 19.7933 117.727 18.6671 116.236 18.6671C112.155 18.6671 107.239 26.6921 107.239 30.8409C107.239 31.8785 107.546 32.284 108.249 32.284C110.924 32.284 115.093 25.927 117.332 22.8602Z" fill="white"/>
<path d="M103.727 30.616C103.727 25.3409 110.09 16.999 116.147 16.999C118.647 16.999 120.667 18.4421 120.667 20.606C120.667 22.1394 119.702 22.7256 118.166 22.7699C118.737 22.9505 119.747 23.356 119.747 24.1227C119.747 25.2949 117.246 28.0909 117.246 30.0742C117.246 30.8409 117.597 31.6979 118.563 31.6979C119.967 31.6979 122.776 29.8049 125.408 24.6645L126.242 25.5215C124.092 30.4354 120.626 33.8175 117.334 33.8175C114.833 33.8175 113.692 31.7439 113.692 29.8952C111.365 32.7815 109.568 34.5842 107.329 34.5842C105.395 34.5825 103.727 33.2757 103.727 30.616ZM117.332 22.8602C117.42 22.7256 117.551 22.6353 117.684 22.6353L117.86 22.6796C118.035 22.0935 118.078 21.642 118.078 21.0115C118.078 19.7933 117.727 18.6671 116.236 18.6671C112.155 18.6671 107.239 26.6921 107.239 30.8409C107.239 31.8785 107.546 32.284 108.249 32.284C110.924 32.284 115.093 25.927 117.332 22.8602Z" fill="url(#paint4_linear_207_456)"/>
<path d="M124.44 29.0367C124.44 20.199 135.06 0.00012207 138.395 0.00012207C139.491 0.00012207 140.194 2.20996 140.237 3.60712C140.237 7.61964 135.058 18.9824 128.389 24.3921C128.125 25.9255 127.906 27.4573 127.906 28.6295C127.906 30.7934 128.652 31.7407 129.793 31.7407C131.987 31.7407 134.533 28.1337 136.156 24.571L137.209 25.1572C134.708 30.5225 131.505 33.8143 128.125 33.8143C125.362 33.8159 124.44 31.6521 124.44 29.0367ZM138.221 4.10458C137.123 4.10458 131.682 13.4381 129.181 21.5994C134.14 16.0518 138.221 7.12546 138.221 4.10458Z" fill="white"/>
<path d="M124.44 29.0367C124.44 20.199 135.06 0.00012207 138.395 0.00012207C139.491 0.00012207 140.194 2.20996 140.237 3.60712C140.237 7.61964 135.058 18.9824 128.389 24.3921C128.125 25.9255 127.906 27.4573 127.906 28.6295C127.906 30.7934 128.652 31.7407 129.793 31.7407C131.987 31.7407 134.533 28.1337 136.156 24.571L137.209 25.1572C134.708 30.5225 131.505 33.8143 128.125 33.8143C125.362 33.8159 124.44 31.6521 124.44 29.0367ZM138.221 4.10458C137.123 4.10458 131.682 13.4381 129.181 21.5994C134.14 16.0518 138.221 7.12546 138.221 4.10458Z" fill="url(#paint5_linear_207_456)"/>
<path d="M134.358 28.9923C134.358 23.6712 140.282 16.188 145.725 16.188C147.26 16.188 148.929 16.8184 148.929 19.2089C148.929 23.7632 143.136 27.3702 137.869 27.9563C137.826 28.1812 137.781 28.4078 137.781 28.9939C137.781 29.6243 137.826 32.5106 141.161 32.5106C144.803 32.5106 148.886 29.0382 151.123 24.7105L152 25.4312C149.63 30.8409 144.891 34.4495 140.194 34.4495C136.42 34.4479 134.358 32.1034 134.358 28.9923ZM146.557 18.9823C146.557 18.3059 146.338 18.1253 145.811 18.1253C143.134 18.1253 139.579 22.5433 138.35 26.2866C141.423 25.927 146.557 22.3644 146.557 18.9823Z" fill="white"/>
<path d="M134.358 28.9923C134.358 23.6712 140.282 16.188 145.725 16.188C147.26 16.188 148.929 16.8184 148.929 19.2089C148.929 23.7632 143.136 27.3702 137.869 27.9563C137.826 28.1812 137.781 28.4078 137.781 28.9939C137.781 29.6243 137.826 32.5106 141.161 32.5106C144.803 32.5106 148.886 29.0382 151.123 24.7105L152 25.4312C149.63 30.8409 144.891 34.4495 140.194 34.4495C136.42 34.4479 134.358 32.1034 134.358 28.9923ZM146.557 18.9823C146.557 18.3059 146.338 18.1253 145.811 18.1253C143.134 18.1253 139.579 22.5433 138.35 26.2866C141.423 25.927 146.557 22.3644 146.557 18.9823Z" fill="url(#paint6_linear_207_456)"/>
<path d="M2.6149 28.2785C1.72529 28.4269 0.837348 28.785 0.409143 29.3699C-0.566767 30.7017 -0.0306786 32.6013 4.60655 31.955C6.02394 31.7572 7.83801 31.4161 9.53257 31.0802C18.5647 29.2948 31.5237 23.2311 32.5644 17.1246C33.1486 13.6988 32.0714 11.0677 29.2051 9.68985C25.9869 8.14151 22.3339 8.77073 19.9954 12.0601C15.0411 19.0311 19.2751 27.6936 23.7281 33.5664C24.1546 34.1275 24.9745 33.4965 24.5878 32.9202C20.8136 27.4327 16.7623 19.3534 21.4792 13.2913C22.309 12.2801 23.2036 11.7259 24.3272 11.2535C26.767 10.2304 30.0648 11.5724 30.6291 14.0007C31.293 16.8569 29.5321 19.338 27.2135 20.9239C17.2104 27.7789 12.2744 26.6688 2.6149 28.2785Z" fill="white"/>
<path d="M2.6149 28.2785C1.72529 28.4269 0.837348 28.785 0.409143 29.3699C-0.566767 30.7017 -0.0306786 32.6013 4.60655 31.955C6.02394 31.7572 7.83801 31.4161 9.53257 31.0802C18.5647 29.2948 31.5237 23.2311 32.5644 17.1246C33.1486 13.6988 32.0714 11.0677 29.2051 9.68985C25.9869 8.14151 22.3339 8.77073 19.9954 12.0601C15.0411 19.0311 19.2751 27.6936 23.7281 33.5664C24.1546 34.1275 24.9745 33.4965 24.5878 32.9202C20.8136 27.4327 16.7623 19.3534 21.4792 13.2913C22.309 12.2801 23.2036 11.7259 24.3272 11.2535C26.767 10.2304 30.0648 11.5724 30.6291 14.0007C31.293 16.8569 29.5321 19.338 27.2135 20.9239C17.2104 27.7789 12.2744 26.6688 2.6149 28.2785Z" fill="url(#paint7_linear_207_456)"/>
<path d="M3.71033 28.1494C2.63318 28.6695 2.33277 29.8546 3.08627 30.8095C3.67381 31.5854 4.76092 31.7253 5.51609 31.1216C7.59571 29.3823 8.88364 27.6327 9.9608 25.1141C10.4521 23.9665 10.7906 23.1684 10.9018 22.0754C10.9201 21.8912 10.7209 21.8622 10.5998 21.9952C8.77244 24.0227 7.26211 26.4339 3.71033 28.1494Z" fill="white"/>
<path d="M3.71033 28.1494C2.63318 28.6695 2.33277 29.8546 3.08627 30.8095C3.67381 31.5854 4.76092 31.7253 5.51609 31.1216C7.59571 29.3823 8.88364 27.6327 9.9608 25.1141C10.4521 23.9665 10.7906 23.1684 10.9018 22.0754C10.9201 21.8912 10.7209 21.8622 10.5998 21.9952C8.77244 24.0227 7.26211 26.4339 3.71033 28.1494Z" fill="url(#paint8_linear_207_456)"/>
<defs>
<linearGradient id="paint0_linear_207_456" x1="32.4956" y1="-14.2802" x2="55.2339" y2="-13.5933" gradientUnits="userSpaceOnUse">
<stop stop-color="#4395E2"/>
<stop offset="0.510417" stop-color="#43AFB6"/>
<stop offset="1" stop-color="#CABEA1"/>
</linearGradient>
<linearGradient id="paint1_linear_207_456" x1="44.2906" y1="0.535857" x2="71.5726" y2="1.99691" gradientUnits="userSpaceOnUse">
<stop stop-color="#4395E2"/>
<stop offset="0.510417" stop-color="#43AFB6"/>
<stop offset="1" stop-color="#CABEA1"/>
</linearGradient>
<linearGradient id="paint2_linear_207_456" x1="57.1393" y1="4.9745" x2="91.3925" y2="7.55641" gradientUnits="userSpaceOnUse">
<stop stop-color="#4395E2"/>
<stop offset="0.510417" stop-color="#43AFB6"/>
<stop offset="1" stop-color="#CABEA1"/>
</linearGradient>
<linearGradient id="paint3_linear_207_456" x1="79.4114" y1="6.05748" x2="108.819" y2="8.05615" gradientUnits="userSpaceOnUse">
<stop stop-color="#4395E2"/>
<stop offset="0.510417" stop-color="#43AFB6"/>
<stop offset="1" stop-color="#CABEA1"/>
</linearGradient>
<linearGradient id="paint4_linear_207_456" x1="94.6146" y1="4.9745" x2="128.868" y2="7.55641" gradientUnits="userSpaceOnUse">
<stop stop-color="#4395E2"/>
<stop offset="0.510417" stop-color="#43AFB6"/>
<stop offset="1" stop-color="#CABEA1"/>
</linearGradient>
<linearGradient id="paint5_linear_207_456" x1="118.046" y1="-23.1216" x2="142.198" y2="-22.4574" gradientUnits="userSpaceOnUse">
<stop stop-color="#4395E2"/>
<stop offset="0.510417" stop-color="#43AFB6"/>
<stop offset="1" stop-color="#CABEA1"/>
</linearGradient>
<linearGradient id="paint6_linear_207_456" x1="127.218" y1="3.70093" x2="154.123" y2="5.23105" gradientUnits="userSpaceOnUse">
<stop stop-color="#4395E2"/>
<stop offset="0.510417" stop-color="#43AFB6"/>
<stop offset="1" stop-color="#CABEA1"/>
</linearGradient>
<linearGradient id="paint7_linear_207_456" x1="-13.2418" y1="-8.1418" x2="36.5178" y2="-4.29261" gradientUnits="userSpaceOnUse">
<stop stop-color="#4395E2"/>
<stop offset="0.510417" stop-color="#43AFB6"/>
<stop offset="1" stop-color="#CABEA1"/>
</linearGradient>
<linearGradient id="paint8_linear_207_456" x1="-0.664135" y1="15.3595" x2="11.9022" y2="15.9951" gradientUnits="userSpaceOnUse">
<stop stop-color="#4395E2"/>
<stop offset="0.510417" stop-color="#43AFB6"/>
<stop offset="1" stop-color="#CABEA1"/>
</linearGradient>
</defs>
</svg>
