<svg width="31" height="23" viewBox="0 0 31 23" fill="none" xmlns="http://www.w3.org/2000/svg">
<path d="M2.40846 17.8628C1.58909 17.9994 0.771242 18.3293 0.376842 18.868C-0.522022 20.0946 -0.0282566 21.8443 4.24288 21.249C5.54837 21.0668 7.21922 20.7527 8.78 20.4433C17.0991 18.7989 29.035 13.2138 29.9935 7.58947C30.5316 4.43413 29.5395 2.01069 26.8995 0.741639C23.9353 -0.684469 20.5707 -0.104918 18.4168 2.92478C13.8537 9.3454 17.7534 17.3241 21.8548 22.7332C22.2477 23.25 23.0028 22.6688 22.6467 22.138C19.1704 17.0838 15.4389 9.64225 19.7834 4.05875C20.5478 3.12738 21.3717 2.61694 22.4067 2.18188C24.6538 1.23952 27.6913 2.47558 28.2111 4.71212C28.8225 7.34289 27.2006 9.62811 25.065 11.0888C15.8517 17.4026 11.3054 16.3801 2.40846 17.8628Z" fill="white"/>
<path d="M2.40846 17.8628C1.58909 17.9994 0.771242 18.3293 0.376842 18.868C-0.522022 20.0946 -0.0282566 21.8443 4.24288 21.249C5.54837 21.0668 7.21922 20.7527 8.78 20.4433C17.0991 18.7989 29.035 13.2138 29.9935 7.58947C30.5316 4.43413 29.5395 2.01069 26.8995 0.741639C23.9353 -0.684469 20.5707 -0.104918 18.4168 2.92478C13.8537 9.3454 17.7534 17.3241 21.8548 22.7332C22.2477 23.25 23.0028 22.6688 22.6467 22.138C19.1704 17.0838 15.4389 9.64225 19.7834 4.05875C20.5478 3.12738 21.3717 2.61694 22.4067 2.18188C24.6538 1.23952 27.6913 2.47558 28.2111 4.71212C28.8225 7.34289 27.2006 9.62811 25.065 11.0888C15.8517 17.4026 11.3054 16.3801 2.40846 17.8628Z" fill="url(#paint0_linear_258_453)"/>
<path d="M3.41739 17.7438C2.42528 18.2229 2.14858 19.3144 2.84261 20.194C3.38376 20.9086 4.38505 21.0374 5.0806 20.4814C6.99603 18.8794 8.18229 17.2679 9.1744 14.9481C9.62689 13.8911 9.93874 13.1561 10.0412 12.1493C10.058 11.9797 9.87453 11.953 9.76294 12.0755C8.07986 13.943 6.68877 16.1638 3.41739 17.7438Z" fill="white"/>
<path d="M3.41739 17.7438C2.42528 18.2229 2.14858 19.3144 2.84261 20.194C3.38376 20.9086 4.38505 21.0374 5.0806 20.4814C6.99603 18.8794 8.18229 17.2679 9.1744 14.9481C9.62689 13.8911 9.93874 13.1561 10.0412 12.1493C10.058 11.9797 9.87453 11.953 9.76294 12.0755C8.07986 13.943 6.68877 16.1638 3.41739 17.7438Z" fill="url(#paint1_linear_258_453)"/>
<defs>
<linearGradient id="paint0_linear_258_453" x1="-12.1964" y1="-15.6823" x2="33.6349" y2="-12.1369" gradientUnits="userSpaceOnUse">
<stop stop-color="#4395E2"/>
<stop offset="0.510417" stop-color="#43AFB6"/>
<stop offset="1" stop-color="#CABEA1"/>
</linearGradient>
<linearGradient id="paint1_linear_258_453" x1="-0.611719" y1="5.96365" x2="10.9625" y2="6.54911" gradientUnits="userSpaceOnUse">
<stop stop-color="#4395E2"/>
<stop offset="0.510417" stop-color="#43AFB6"/>
<stop offset="1" stop-color="#CABEA1"/>
</linearGradient>
</defs>
</svg>
