<svg width="44" height="35" viewBox="0 0 44 35" fill="none" xmlns="http://www.w3.org/2000/svg">
<path d="M3.50987 26.9572C2.31579 27.1563 1.12394 27.637 0.549176 28.4221C-0.760748 30.2097 -0.0411786 32.7595 6.18319 31.892C8.0857 31.6265 10.5206 31.1687 12.7952 30.7178C24.9187 28.3213 42.313 20.1821 43.7098 11.9857C44.494 7.38736 43.0482 3.85564 39.2009 2.00623C34.8812 -0.0720587 29.9779 0.772532 26.839 5.18776C20.1891 14.5446 25.8722 26.1721 31.8492 34.055C32.4218 34.808 33.5223 33.9611 33.0032 33.1875C27.9373 25.8219 22.4993 14.9772 28.8306 6.84032C29.9445 5.48302 31.1453 4.73914 32.6535 4.10513C35.9283 2.73181 40.3548 4.53314 41.1123 7.79249C42.0034 11.6263 39.6397 14.9566 36.5275 17.0853C23.1008 26.2865 16.4755 24.7965 3.50987 26.9572Z" fill="white"/>
<path d="M4.98027 26.7839C3.53445 27.482 3.13122 29.0727 4.14263 30.3545C4.93125 31.3959 6.39044 31.5836 7.40407 30.7734C10.1955 28.4387 11.9242 26.0904 13.37 22.7097C14.0294 21.1693 14.4839 20.0981 14.6332 18.6309C14.6577 18.3837 14.3903 18.3448 14.2277 18.5234C11.7749 21.2448 9.74768 24.4813 4.98027 26.7839Z" fill="white"/>
</svg>
